<svg xmlns="http://www.w3.org/2000/svg" viewBox="0 0 96 96"><style>.alpha{fill:#3d5a7c}@media(prefers-color-scheme:dark){.alpha{fill:#dde8ff}}</style><path class="alpha" d="M41.742 24.115c-10.347 0-19.691 10.022-19.691 23.885s9.344 23.885 19.691 23.885c4.813 0 9.29-2.15 13.096-5.996 2.641-2.67 5.037-6.45 7.389-10.758 1.652 3.95 3.212 7.602 5.914 14.807a3 3 0 0 0 3.861 1.756 3 3 0 0 0 1.756-3.863c-3.566-9.509-6.074-15.724-7.928-19.828 1.815-4.052 4.32-10.266 7.926-19.828a3 3 0 0 0-1.748-3.866 3 3 0 0 0-3.865 1.748c-2.737 7.256-4.287 10.904-5.93 14.844-2.344-4.253-4.74-8.005-7.379-10.686-3.808-3.869-8.273-6.1-13.092-6.1zm0 6c3.064 0 5.785 1.227 8.816 4.307 2.816 2.86 5.721 7.505 8.653 13.584-2.952 6.189-5.846 10.838-8.639 13.662-3.005 3.038-5.69 4.216-8.83 4.216-6.343 0-13.691-6.686-13.691-17.885 0-11.199 7.348-17.885 13.69-17.885z"/></svg>
